<svg xmlns="http://www.w3.org/2000/svg"><style>:root svg:not(:target){display:none}</style><svg fill="#525252" viewBox="0 0 300.003 300.003" id="back-icon"><path d="M150 0C67.159 0 .001 67.159.001 150c0 82.838 67.157 150.003 149.997 150.003S300.002 232.838 300.002 150C300.002 67.159 232.839 0 150 0zm39.226 218.202a13.968 13.968 0 0 1-9.902 4.101 13.955 13.955 0 0 1-9.902-4.103l-56.295-56.292a13.898 13.898 0 0 1-2.368-1.886c-2.796-2.799-4.145-6.479-4.077-10.144-.065-3.667 1.281-7.35 4.077-10.146a14.146 14.146 0 0 1 2.368-1.886l56.043-56.043c5.47-5.465 14.34-5.467 19.808.003 5.47 5.467 5.47 14.335 0 19.808l-48.265 48.265 48.514 48.516c5.468 5.469 5.468 14.337-.001 19.807z"></path></svg><svg fill="#ff4500" viewBox="0 0 1000 1000" id="diamond-icon"><path d="M236.53 106.9c-6.93 1.03-23.34 18.98-117.24 126.99C59.26 302.9 10.26 360.37 10 361.4c0 1.28 50.03 2.05 111.34 2.05h111.6l108.52-126.48C401.23 167.7 451 109.47 451.77 108.18c1.54-2.56-199.08-3.84-215.24-1.28zM549.77 107.42c-.77 1.03 47.97 59 108 129.04l109.54 126.99h111.34c61.32 0 111.34-.77 111.34-2.05-.26-1.03-49.77-58.75-110.31-128.53L769.63 106.13l-109.54-.26c-60.04-.25-109.81.52-110.32 1.55zM394.82 238.51c-57.21 66.45-104.16 121.86-104.67 122.89-.51 1.03 93.89 2.05 209.6 2.05 115.96 0 210.62-.51 210.62-1.28 0-1.28-29.76-36.17-167.78-196.26-22.32-26.17-41.56-47.72-42.33-47.97-.77-.26-48.23 53.87-105.44 120.57zM28.21 421.68c9.24 9.75 102.37 107.75 207.29 218.07 104.67 110.57 190.87 200.87 191.64 200.87 1.54 0-.26-3.85-100.05-223.19l-96.2-211.65-109.55-.77-109.54-.51 16.41 17.18zM277.32 406.8c4.1 11.55 221.65 487.7 222.68 487.7 1.28 0 216.52-471.27 222.42-486.67 1.02-2.82-37.97-3.33-222.42-3.33-135.2 0-223.19 1.02-222.68 2.3zM765.78 412.71c-1.79 4.62-43.61 96.72-92.61 204.72-105.19 231.15-101.59 223.19-100.31 223.19.51 0 86.71-90.3 191.64-200.62 104.92-110.57 198.05-208.57 207.29-218.32l16.41-17.18H769.37l-3.59 8.21z"></path></svg><svg fill="#fff" viewBox="0 0 48 48" id="heart-icon"><g data-name="Layer 2"><path fill="none" d="M0 0h48v48H0z" data-name="invisible box"></path><path d="M34 4c-3.9 0-8 3.1-10 6.5C22 7.1 17.9 4 14 4a12 12 0 0 0-8.5 3.6A11.9 11.9 0 0 0 2 16.1c0 4.1 2.7 7.6 5 10.2l16.3 17.4a1 1 0 0 0 1.4 0L41 26.3c2.3-2.6 5-6.1 5-10.2A12.1 12.1 0 0 0 34 4Z" data-name="icons Q2"></path></g></svg><svg id="home-icon" viewBox="0 0 512 512"><style>.st0{fill:#ff4500}</style><path class="st0" d="M434.162 293.382v200.48H308.321V368.583H203.682v125.279H77.841v-200.48l178.161-139.52z"></path><path class="st0" d="M0 242.682 256 38.93l256 203.752-29.79 43.082L256 105.722 29.79 285.764zM439.853 18.138v130.4l-63.28-50.4v-80z"></path></svg><svg fill="#ff4500" viewBox="0 0 512.004 512.004" id="right-arrow"><path d="M509.501 249.969 262.035 2.502a8.497 8.497 0 0 0-6.033-2.5H8.535a8.53 8.53 0 0 0-6.033 14.566l241.434 241.434L2.502 497.435a8.534 8.534 0 0 0-1.852 9.301 8.538 8.538 0 0 0 7.885 5.265h247.467c2.27 0 4.437-.896 6.033-2.5l247.467-247.467a8.522 8.522 0 0 0-.001-12.065z"></path></svg><svg viewBox="0 0 511.893 511.893" id="right-icon"><path d="M476.84 248.107 233.64 3.2c-2.027-2.027-4.693-3.2-7.573-3.2H42.6c-5.867 0-10.667 4.8-10.667 10.667 0 2.88 1.173 5.547 3.093 7.573l237.76 237.44L35.24 493.76a10.623 10.623 0 0 0 0 15.04c2.027 2.027 4.693 3.093 7.573 3.093H226.28c2.88 0 5.547-1.173 7.573-3.2L476.84 263.04c4.16-4.053 4.16-10.773 0-14.933zM221.8 490.667H68.52l226.987-227.52a10.623 10.623 0 0 0 0-15.04L68.413 21.333h153.28l232.64 234.347L221.8 490.667z"></path></svg><svg viewBox="0 0 32 32" id="youtube-icon"><path d="M24.325 8.309s-2.655-.334-8.357-.334c-5.517 0-8.294.334-8.294.334A2.675 2.675 0 0 0 5 10.984v10.034a2.675 2.675 0 0 0 2.674 2.676s2.582.332 8.294.332c5.709 0 8.357-.332 8.357-.332A2.673 2.673 0 0 0 27 21.018V10.982a2.673 2.673 0 0 0-2.675-2.673zM13.061 19.975V12.03L20.195 16l-7.134 3.975z"></path></svg></svg>